<?xml version="1.0" encoding="utf-8"?>
<!-- Generator: Adobe Illustrator 19.2.0, SVG Export Plug-In . SVG Version: 6.00 Build 0)  -->
<svg version="1.1" id="grid" xmlns="http://www.w3.org/2000/svg" xmlns:xlink="http://www.w3.org/1999/xlink" x="0px" y="0px"
	 viewBox="0 0 700 700" style="enable-background:new 0 0 700 700;" xml:space="preserve">
<style type="text/css">
	#grid .st0{fill:#FFFFFF;stroke:#000000;stroke-miterlimit:10;}
</style>
<rect x="0" y="0" class="st0" width="100" height="100"/>
<rect x="100" y="0" class="st0" width="100" height="100"/>
<rect x="200" y="0" class="st0" width="100" height="100"/>
<rect x="300" y="0" class="st0" width="100" height="100"/>
<rect x="400" y="0" class="st0" width="100" height="100"/>
<rect x="500" y="0" class="st0" width="100" height="100"/>
<rect x="600" y="0" class="st0" width="100" height="100"/>
<rect x="0" y="100" class="st0" width="100" height="100"/>
<rect x="100" y="100" class="st0" width="100" height="100"/>
<rect x="200" y="100" class="st0" width="100" height="100"/>
<rect x="300" y="100" class="st0" width="100" height="100"/>
<rect x="400" y="100" class="st0" width="100" height="100"/>
<rect x="500" y="100" class="st0" width="100" height="100"/>
<rect x="600" y="100" class="st0" width="100" height="100"/>
<rect x="0" y="200" class="st0" width="100" height="100"/>
<rect x="100" y="200" class="st0" width="100" height="100"/>
<rect x="200" y="200" class="st0" width="100" height="100"/>
<rect x="300" y="200" class="st0" width="100" height="100"/>
<rect x="400" y="200" class="st0" width="100" height="100"/>
<rect x="500" y="200" class="st0" width="100" height="100"/>
<rect x="600" y="200" class="st0" width="100" height="100"/>
<rect x="0" y="300" class="st0" width="100" height="100"/>
<rect x="100" y="300" class="st0" width="100" height="100"/>
<rect x="200" y="300" class="st0" width="100" height="100"/>
<rect x="300" y="300" class="st0" width="100" height="100"/>
<rect x="400" y="300" class="st0" width="100" height="100"/>
<rect x="500" y="300" class="st0" width="100" height="100"/>
<rect x="600" y="300" class="st0" width="100" height="100"/>
<rect x="0" y="400" class="st0" width="100" height="100"/>
<rect x="100" y="400" class="st0" width="100" height="100"/>
<rect x="200" y="400" class="st0" width="100" height="100"/>
<rect x="300" y="400" class="st0" width="100" height="100"/>
<rect x="400" y="400" class="st0" width="100" height="100"/>
<rect x="500" y="400" class="st0" width="100" height="100"/>
<rect x="600" y="400" class="st0" width="100" height="100"/>
<rect x="0" y="500" class="st0" width="100" height="100"/>
<rect x="100" y="500" class="st0" width="100" height="100"/>
<rect x="200" y="500" class="st0" width="100" height="100"/>
<rect x="300" y="500" class="st0" width="100" height="100"/>
<rect x="400" y="500" class="st0" width="100" height="100"/>
<rect x="500" y="500" class="st0" width="100" height="100"/>
<rect x="600" y="500" class="st0" width="100" height="100"/>
<rect x="0" y="600" class="st0" width="100" height="100"/>
<rect x="100" y="600" class="st0" width="100" height="100"/>
<rect x="200" y="600" class="st0" width="100" height="100"/>
<rect x="300" y="600" class="st0" width="100" height="100"/>
<rect x="400" y="600" class="st0" width="100" height="100"/>
<rect x="500" y="600" class="st0" width="100" height="100"/>
<rect x="600" y="600" class="st0" width="100" height="100"/>
</svg>
